<mxfile host="Electron" modified="2023-03-31T07:59:53.412Z" agent="Mozilla/5.0 (X11; Linux x86_64) AppleWebKit/537.36 (KHTML, like Gecko) draw.io/21.1.2 Chrome/106.0.5249.199 Electron/21.4.3 Safari/537.36" etag="nRVqcbLbG_LhFve26Bll" version="21.1.2" type="device">
  <diagram id="C5RBs43oDa-KdzZeNtuy" name="Page-1">
    <mxGraphModel dx="1360" dy="843" grid="1" gridSize="10" guides="1" tooltips="1" connect="1" arrows="1" fold="1" page="1" pageScale="1" pageWidth="827" pageHeight="1169" math="0" shadow="0">
      <root>
        <mxCell id="WIyWlLk6GJQsqaUBKTNV-0" />
        <mxCell id="WIyWlLk6GJQsqaUBKTNV-1" parent="WIyWlLk6GJQsqaUBKTNV-0" />
        <mxCell id="fHeBqfB49apTMtqjC7tA-3" style="edgeStyle=orthogonalEdgeStyle;rounded=0;orthogonalLoop=1;jettySize=auto;html=1;exitX=0.5;exitY=1;exitDx=0;exitDy=0;" parent="WIyWlLk6GJQsqaUBKTNV-1" source="fHeBqfB49apTMtqjC7tA-37" target="fHeBqfB49apTMtqjC7tA-4" edge="1">
          <mxGeometry relative="1" as="geometry">
            <mxPoint x="401" y="180" as="targetPoint" />
            <Array as="points">
              <mxPoint x="411" y="170" />
              <mxPoint x="411" y="170" />
            </Array>
          </mxGeometry>
        </mxCell>
        <mxCell id="fHeBqfB49apTMtqjC7tA-40" value="" style="edgeStyle=orthogonalEdgeStyle;rounded=0;orthogonalLoop=1;jettySize=auto;html=1;" parent="WIyWlLk6GJQsqaUBKTNV-1" source="fHeBqfB49apTMtqjC7tA-0" target="fHeBqfB49apTMtqjC7tA-37" edge="1">
          <mxGeometry relative="1" as="geometry" />
        </mxCell>
        <mxCell id="fHeBqfB49apTMtqjC7tA-0" value="Start" style="ellipse;whiteSpace=wrap;html=1;" parent="WIyWlLk6GJQsqaUBKTNV-1" vertex="1">
          <mxGeometry x="351" width="120" height="50" as="geometry" />
        </mxCell>
        <mxCell id="fHeBqfB49apTMtqjC7tA-8" style="edgeStyle=orthogonalEdgeStyle;rounded=0;orthogonalLoop=1;jettySize=auto;html=1;exitX=0.5;exitY=1;exitDx=0;exitDy=0;entryX=0.5;entryY=0;entryDx=0;entryDy=0;" parent="WIyWlLk6GJQsqaUBKTNV-1" source="fHeBqfB49apTMtqjC7tA-4" target="fHeBqfB49apTMtqjC7tA-9" edge="1">
          <mxGeometry relative="1" as="geometry">
            <mxPoint x="401" y="210" as="targetPoint" />
          </mxGeometry>
        </mxCell>
        <mxCell id="fHeBqfB49apTMtqjC7tA-4" value="Write Username" style="rounded=0;whiteSpace=wrap;html=1;" parent="WIyWlLk6GJQsqaUBKTNV-1" vertex="1">
          <mxGeometry x="351" y="170" width="120" height="30" as="geometry" />
        </mxCell>
        <mxCell id="fHeBqfB49apTMtqjC7tA-11" style="edgeStyle=orthogonalEdgeStyle;rounded=0;orthogonalLoop=1;jettySize=auto;html=1;exitX=0.5;exitY=1;exitDx=0;exitDy=0;entryX=0.5;entryY=0;entryDx=0;entryDy=0;" parent="WIyWlLk6GJQsqaUBKTNV-1" source="fHeBqfB49apTMtqjC7tA-9" target="fHeBqfB49apTMtqjC7tA-12" edge="1">
          <mxGeometry relative="1" as="geometry">
            <mxPoint x="402" y="280" as="targetPoint" />
          </mxGeometry>
        </mxCell>
        <mxCell id="fHeBqfB49apTMtqjC7tA-9" value="Write Password" style="rounded=0;whiteSpace=wrap;html=1;" parent="WIyWlLk6GJQsqaUBKTNV-1" vertex="1">
          <mxGeometry x="351" y="243.75" width="120" height="30" as="geometry" />
        </mxCell>
        <mxCell id="fHeBqfB49apTMtqjC7tA-14" style="edgeStyle=orthogonalEdgeStyle;rounded=0;orthogonalLoop=1;jettySize=auto;html=1;exitX=0;exitY=0.5;exitDx=0;exitDy=0;" parent="WIyWlLk6GJQsqaUBKTNV-1" source="fHeBqfB49apTMtqjC7tA-12" target="fHeBqfB49apTMtqjC7tA-15" edge="1">
          <mxGeometry relative="1" as="geometry">
            <mxPoint x="271" y="295" as="targetPoint" />
          </mxGeometry>
        </mxCell>
        <mxCell id="fHeBqfB49apTMtqjC7tA-12" value="Buton Login" style="rounded=0;whiteSpace=wrap;html=1;" parent="WIyWlLk6GJQsqaUBKTNV-1" vertex="1">
          <mxGeometry x="351" y="337.5" width="120" height="30" as="geometry" />
        </mxCell>
        <mxCell id="fHeBqfB49apTMtqjC7tA-17" style="edgeStyle=orthogonalEdgeStyle;rounded=0;orthogonalLoop=1;jettySize=auto;html=1;exitX=0.5;exitY=1;exitDx=0;exitDy=0;entryX=0.5;entryY=0;entryDx=0;entryDy=0;" parent="WIyWlLk6GJQsqaUBKTNV-1" source="fHeBqfB49apTMtqjC7tA-15" target="fHeBqfB49apTMtqjC7tA-20" edge="1">
          <mxGeometry relative="1" as="geometry">
            <mxPoint x="206" y="400" as="targetPoint" />
          </mxGeometry>
        </mxCell>
        <mxCell id="fHeBqfB49apTMtqjC7tA-34" style="edgeStyle=orthogonalEdgeStyle;rounded=0;orthogonalLoop=1;jettySize=auto;html=1;exitX=0.5;exitY=0;exitDx=0;exitDy=0;entryX=0;entryY=0.5;entryDx=0;entryDy=0;" parent="WIyWlLk6GJQsqaUBKTNV-1" source="fHeBqfB49apTMtqjC7tA-15" target="fHeBqfB49apTMtqjC7tA-29" edge="1">
          <mxGeometry relative="1" as="geometry" />
        </mxCell>
        <mxCell id="fHeBqfB49apTMtqjC7tA-15" value="Username and password&amp;nbsp;&lt;br&gt;are exist in csv?" style="rhombus;whiteSpace=wrap;html=1;" parent="WIyWlLk6GJQsqaUBKTNV-1" vertex="1">
          <mxGeometry x="126" y="303.75" width="150" height="97.5" as="geometry" />
        </mxCell>
        <mxCell id="fHeBqfB49apTMtqjC7tA-18" value="yes" style="text;html=1;strokeColor=none;fillColor=none;align=center;verticalAlign=middle;whiteSpace=wrap;rounded=0;rotation=0;" parent="WIyWlLk6GJQsqaUBKTNV-1" vertex="1">
          <mxGeometry x="191" y="401.25" width="60" height="30" as="geometry" />
        </mxCell>
        <mxCell id="fHeBqfB49apTMtqjC7tA-23" style="edgeStyle=orthogonalEdgeStyle;rounded=0;orthogonalLoop=1;jettySize=auto;html=1;exitX=0.5;exitY=1;exitDx=0;exitDy=0;entryX=0.5;entryY=0;entryDx=0;entryDy=0;" parent="WIyWlLk6GJQsqaUBKTNV-1" source="fHeBqfB49apTMtqjC7tA-20" target="fHeBqfB49apTMtqjC7tA-22" edge="1">
          <mxGeometry relative="1" as="geometry" />
        </mxCell>
        <mxCell id="fHeBqfB49apTMtqjC7tA-20" value="Open Page Private" style="rounded=0;whiteSpace=wrap;html=1;" parent="WIyWlLk6GJQsqaUBKTNV-1" vertex="1">
          <mxGeometry x="141" y="460" width="120" height="30" as="geometry" />
        </mxCell>
        <mxCell id="fHeBqfB49apTMtqjC7tA-22" value="End" style="ellipse;whiteSpace=wrap;html=1;" parent="WIyWlLk6GJQsqaUBKTNV-1" vertex="1">
          <mxGeometry x="141" y="534.5" width="120" height="50" as="geometry" />
        </mxCell>
        <mxCell id="fHeBqfB49apTMtqjC7tA-42" style="edgeStyle=orthogonalEdgeStyle;rounded=0;orthogonalLoop=1;jettySize=auto;html=1;exitX=1;exitY=0.5;exitDx=0;exitDy=0;entryX=0;entryY=0.5;entryDx=0;entryDy=0;" parent="WIyWlLk6GJQsqaUBKTNV-1" source="fHeBqfB49apTMtqjC7tA-29" target="fHeBqfB49apTMtqjC7tA-37" edge="1">
          <mxGeometry relative="1" as="geometry" />
        </mxCell>
        <mxCell id="fHeBqfB49apTMtqjC7tA-29" value="&lt;font style=&quot;font-size: 10px;&quot;&gt;Login error something not right !&lt;/font&gt;" style="text;html=1;strokeColor=none;fillColor=none;align=center;verticalAlign=middle;whiteSpace=wrap;rounded=0;rotation=270;" parent="WIyWlLk6GJQsqaUBKTNV-1" vertex="1">
          <mxGeometry x="128.39" y="187.39" width="145.23" height="40" as="geometry" />
        </mxCell>
        <mxCell id="fHeBqfB49apTMtqjC7tA-35" value="No" style="text;html=1;strokeColor=none;fillColor=none;align=center;verticalAlign=middle;whiteSpace=wrap;rounded=0;" parent="WIyWlLk6GJQsqaUBKTNV-1" vertex="1">
          <mxGeometry x="141" y="273.75" width="60" height="30" as="geometry" />
        </mxCell>
        <mxCell id="fHeBqfB49apTMtqjC7tA-43" value="" style="edgeStyle=orthogonalEdgeStyle;rounded=0;orthogonalLoop=1;jettySize=auto;html=1;exitX=0.5;exitY=1;exitDx=0;exitDy=0;" parent="WIyWlLk6GJQsqaUBKTNV-1" source="fHeBqfB49apTMtqjC7tA-0" target="fHeBqfB49apTMtqjC7tA-37" edge="1">
          <mxGeometry relative="1" as="geometry">
            <mxPoint x="411" y="160" as="targetPoint" />
            <mxPoint x="411" y="50" as="sourcePoint" />
            <Array as="points" />
          </mxGeometry>
        </mxCell>
        <mxCell id="fHeBqfB49apTMtqjC7tA-37" value="Process Login" style="rounded=0;whiteSpace=wrap;html=1;" parent="WIyWlLk6GJQsqaUBKTNV-1" vertex="1">
          <mxGeometry x="331" y="90.00000000000001" width="160" height="30" as="geometry" />
        </mxCell>
      </root>
    </mxGraphModel>
  </diagram>
</mxfile>
